<?xml version="1.0" encoding="utf-8"?>
<svg version="1.1" xmlns="http://www.w3.org/2000/svg" xmlns:xlink="http://www.w3.org/1999/xlink" x="0px" y="0px"
	 viewBox="0 0 3710 3710" style="enable-background:new 0 0 3710 3710;" xml:space="preserve">
<g id="Background">
	<g>
		<g>
			<rect style="fill:#f4f5f7;" width="3710" height="3710"/>
		</g>
	</g>
</g>
<g id="Illustration">
	<g>
		<path style="fill:#F4F7FA;" d="M1086.126,553.754c-95.659,139.444,16.503,365.517-125.438,470.391
			c-138.169,102.087-307.905-65.247-438.12,22.629c-193.167,130.358-157.891,726.853,124.529,1097.468
			c84.933,111.457,155.9,154.823,187.331,280.875c67.491,270.666-169.707,431.674-124.568,565.541
			c101.635,301.419,1664.715,554.345,2291.893-351.519c292.917-423.076,336.744-1034.001,75.031-1498.002
			C2603.875,302.694,1300.768,240.866,1086.126,553.754z"/>
		<g>
			
				<linearGradient id="SVGID_1_" gradientUnits="userSpaceOnUse" x1="296.0719" y1="1526.6625" x2="1667.1111" y2="1526.6625" gradientTransform="matrix(0.9992 0.0401 -0.0401 0.9992 140.5537 689.5381)">
				<stop  offset="0" style="stop-color:#AA80F9"/>
				<stop  offset="0.9964" style="stop-color:#6165D7"/>
			</linearGradient>
			<path style="fill:url(#SVGID_1_);" d="M1437.657,3162.775c53.918-16.279,144.688-43.685,210.752-127.079
				c120.106-151.614,80.585-389.864-2.908-541.561c-71.715-130.302-204.76-215.147-470.85-384.843
				c-250.603-159.82-336.245-178.335-357.44-275.623c-30.215-138.695,113.273-241.395,53.763-397.91
				c-7.141-18.781-31.668-83.288-90.493-107.688c-100.698-41.769-231.229,63.303-292.392,140.898
				c-58.996,74.847-122.673,211.945-75.387,323.033c34.259,80.486,97.662,78.943,110.896,152.925
				c13.316,74.436-46.851,98.449-75.008,220.817c-11.249,48.886-33.828,147.014,9.213,231.615
				c55.654,109.391,170.638,97.142,191.332,188.042c14.952,65.677-40.19,93.547-39.172,169.549
				c1.339,100.056,98.539,173.668,180.245,233.845C886.421,3059.659,1145.988,3250.836,1437.657,3162.775z"/>
			<path style="opacity:0.16;fill:#FFFFFF;" d="M741.785,1370.455c53.512,39.844-110.185,204.303-72.719,429.514
				c40.311,242.316,288.913,407.136,403.8,483.305c196.015,129.957,281.991,106.518,406.223,249.843
				c49.169,56.725,151.604,174.902,134.615,333.765c-1.578,14.76-21.63,179.05-151.2,252.93
				c-146.966,83.801-323.092-12.433-474.854-95.349c-91.702-50.104-274.888-150.191-258.094-253.155
				c10.266-62.942,92.901-112.466,159.962-125.396c95.715-18.458,172.815,35.098,181.927,18.859
				c8.207-14.626-46.45-72.147-122.537-115.91c-152.19-87.534-234.522-30.53-347.04-111.037
				c-13.638-9.758-120.578-88.645-119.019-203.645c0.899-66.326,37.914-146.389,91.902-158.184
				c61.06-13.341,117.479,66.401,131.962,53.852c13.85-11.998-29.319-92.194-83.561-165.222
				c-79.699-107.303-116.894-109.719-145.527-176.955c-43.686-102.58-3.965-206.989,1.96-221.916
				C535.107,1425.878,696.034,1336.39,741.785,1370.455z"/>
		</g>
		<g>
			
				<linearGradient id="SVGID_00000045600721707541873290000006590838164782735784_" gradientUnits="userSpaceOnUse" x1="2615.4163" y1="940.195" x2="4108.4663" y2="940.195" gradientTransform="matrix(-0.9588 0.2842 0.2842 0.9588 5269.5083 150.4705)">
				<stop  offset="0" style="stop-color:#FF9085"/>
				<stop  offset="1" style="stop-color:#FB6FBB"/>
			</linearGradient>
			<path style="fill:url(#SVGID_00000045600721707541873290000006590838164782735784_);" d="M2157.686,3067.417
				c-61.276-2.766-164.433-7.424-256.482-77.795c-167.347-127.941-189.342-390.036-141.768-572.516
				c40.863-156.742,158.63-281.898,394.163-532.213c221.824-235.748,307.287-278.199,303.643-386.576
				c-5.194-154.504-184.144-224.552-163.178-405.704c2.517-21.738,11.157-96.399,66.735-137.891
				c95.138-71.028,261.044,4.99,346.368,70.551c82.301,63.239,186.192,190.947,165.981,320.871
				c-14.643,94.133-81.992,109.461-76.177,191.105c5.849,82.145,75.791,91.405,138.244,213.061
				c24.95,48.602,75.031,146.159,52.217,246.986c-29.499,130.37-154.166,148.19-151.702,249.69
				c1.78,73.336,67.448,88.011,86.7,168.521c25.345,105.99-57.583,209.7-127.748,295.081
				C2712.061,2811.129,2489.159,3082.379,2157.686,3067.417z"/>
			<path style="opacity:0.16;fill:#FFFFFF;" d="M2412.989,989.115c-45.838,56.375,170.964,186.218,191.642,433.999
				c22.248,266.6-196.126,507.092-297.044,618.23c-172.181,189.621-269.217,187.87-362.04,372.407
				c-36.739,73.036-113.276,225.193-52.852,388.366c5.614,15.16,70.722,183.241,227.27,226.586
				c177.568,49.166,337.771-99.534,475.813-227.658c83.411-77.422,250.038-232.078,204.771-336.287
				c-27.672-63.704-128.156-93.887-202.412-89.603c-105.985,6.112-173.059,83.272-187.021,68.565
				c-12.576-13.246,29.743-88.59,98.366-155.141c137.26-133.114,239.425-94.953,336.682-210.038
				c11.789-13.949,103.59-125.832,71.188-246.823c-18.687-69.782-79.178-144.407-139.329-142.42
				c-68.031,2.246-106.266,101.52-124.913,92.146c-17.83-8.963,6.296-105.173,44.029-196.777
				c55.443-134.597,94.064-147.095,106.311-225.735c18.685-119.98-51.172-219.583-61.419-233.758
				C2646.006,992.352,2452.179,940.916,2412.989,989.115z"/>
		</g>
		<g>
			
				<linearGradient id="SVGID_00000066509285666030214730000016447711186968033425_" gradientUnits="userSpaceOnUse" x1="-86.9278" y1="-369.6675" x2="390.4427" y2="-1131.1869" gradientTransform="matrix(0.4225 -0.9063 0.9063 0.4225 1226.4425 3076.1191)">
				<stop  offset="0.0036" style="stop-color:#E38DDD"/>
				<stop  offset="1" style="stop-color:#9571F6"/>
			</linearGradient>
			<path style="fill:url(#SVGID_00000066509285666030214730000016447711186968033425_);" d="M1079.816,3176.458
				c20.764-15.295,55.72-41.045,71.428-87.158c28.557-83.836-25.045-180.56-84.339-233.197
				c-50.93-45.213-121.346-61.406-262.178-93.795c-132.635-30.504-172.424-25.353-196.493-64.074
				c-34.314-55.201,11.835-121.522-37.851-179.917c-5.962-7.007-26.44-31.074-55.562-32.577
				c-49.852-2.571-90.046,62.785-104.529,105.646c-13.97,41.341-20.408,110.258,17.034,150.93
				c27.129,29.468,54.246,19.074,71.305,48.962c17.164,30.071-5.109,49.661,1.516,106.773c2.647,22.817,7.96,68.615,39.509,98.511
				c40.793,38.656,88.521,15.731,111.394,51.773c16.527,26.041-2.988,46.524,9.111,79.157
				c15.928,42.961,69.156,59.808,113.638,73.235C826.179,3216.539,967.493,3259.196,1079.816,3176.458z"/>
			<path style="opacity:0.16;fill:#FFFFFF;" d="M504.628,2509.963c29.199,8.98-16.194,105.046,34.521,196.459
				c54.567,98.357,187.106,131.325,248.357,146.561c104.503,25.995,137.999,2.693,213.585,45.468
				c29.915,16.929,92.238,52.198,109.281,123.343c1.584,6.609,18.137,80.565-26.428,132.316
				c-50.549,58.701-141.298,44.204-219.492,31.714c-47.249-7.548-141.636-22.625-150.186-69.622
				c-5.228-28.73,22.825-62.773,49.774-78.64c38.462-22.647,79.942-11.37,81.381-19.774c1.297-7.569-31.109-24-70.648-31.208
				c-79.088-14.416-105.863,22.808-166.757,5.338c-7.381-2.117-65.621-19.745-82.591-69.598
				c-9.788-28.752-6.102-68.973,15.381-82.344c24.296-15.123,60.87,10.624,65.194,2.988c4.134-7.302-26.793-35.277-61.398-58.462
				c-50.846-34.066-67.263-29.402-89.932-54.017c-34.585-37.553-33.466-88.692-33.2-96.041
				C423.965,2565.581,479.664,2502.285,504.628,2509.963z"/>
		</g>
		<g>
			<g>
				<g>
					<g>
						<path style="fill:#D8DEE8;" d="M2180.493,846.03L878.147,801.951c-29.775-1.008-53.961,22.061-53.961,51.529v2365.742
							c0,29.468,24.186,51.979,53.961,50.286l1302.347-74.057c26.936-1.532,48.73-25.427,48.73-53.375V898.284
							C2229.224,870.336,2207.429,846.942,2180.493,846.03z"/>
						<g style="opacity:0.3;">
							<path style="fill:#D8DEE8;" d="M1646.14,2592.952c-22.149-270.504,144.017-382.156,80.651-627.235
								c-78.325-302.938-379.572-315.922-482.164-612.99c-39.309-113.821-54.838-285.896,57.685-536.419l-424.165-14.356
								c-29.775-1.008-53.961,22.061-53.961,51.529v2365.742c0,29.468,24.186,51.979,53.961,50.286l1161.253-66.034
								C1743.951,2974.71,1659.752,2759.216,1646.14,2592.952z"/>
						</g>
						
							<linearGradient id="SVGID_00000172400204679491494850000000957809816588118417_" gradientUnits="userSpaceOnUse" x1="2170.9839" y1="947.4734" x2="1209.7015" y2="2520.479">
							<stop  offset="0" style="stop-color:#FFFFFF"/>
							<stop  offset="0.9964" style="stop-color:#EBEFF2"/>
						</linearGradient>
						<path style="fill:url(#SVGID_00000172400204679491494850000000957809816588118417_);" d="M2180.493,875.901L878.147,833.324
							c-12.205-0.399-22.143,9.097-22.143,21.17v2362.981c0,12.072,9.938,21.34,22.143,20.66l1302.347-72.555
							c11.055-0.616,20.042-10.453,20.042-21.929V897.369C2200.535,885.893,2191.549,876.263,2180.493,875.901z"/>
					</g>
					<g>
						<path style="fill:#D8DEE8;" d="M1934.528,2664.764l-790.238,28.474c-18.655,0.672-33.797,16.327-33.797,34.965
							c0,18.638,15.142,33.164,33.797,32.445l790.238-30.452c17.552-0.676,31.764-15.854,31.764-33.9
							C1966.292,2678.249,1952.08,2664.132,1934.528,2664.764z"/>
						<path style="fill:#D8DEE8;" d="M1934.528,2781.316l-790.238,31.997c-18.655,0.755-33.797,16.478-33.797,35.116
							c0,18.637,15.142,33.096,33.797,32.294l790.238-33.975c17.552-0.754,31.764-15.995,31.764-34.042
							C1966.292,2794.659,1952.08,2780.605,1934.528,2781.316z"/>
						<path style="fill:#D8DEE8;" d="M1934.528,2897.867l-790.238,35.52c-18.655,0.838-33.797,16.628-33.797,35.266
							c0,18.638,15.142,33.029,33.797,32.144l790.238-37.497c17.552-0.833,31.764-16.137,31.764-34.184
							C1966.292,2911.069,1952.08,2897.078,1934.528,2897.867z"/>
					</g>
					<g>
						<path style="fill:#D8DEE8;" d="M1524.74,970.504l-397.51-11.259c-9.242-0.262-16.738,7.004-16.738,16.229
							c0,9.225,7.497,16.906,16.738,17.156l397.51,10.766c8.965,0.243,16.228-6.919,16.228-15.997
							C1540.969,978.323,1533.705,970.758,1524.74,970.504z"/>
						<path style="fill:#D8DEE8;" d="M1524.74,1029.096l-397.51-10.382c-9.242-0.241-16.738,7.041-16.738,16.266
							c0,9.224,7.497,16.889,16.738,17.12l397.51,9.889c8.965,0.223,16.228-6.956,16.228-16.033
							C1540.969,1036.878,1533.705,1029.33,1524.74,1029.096z"/>
						<path style="fill:#D8DEE8;" d="M1524.74,1087.687l-397.51-9.505c-9.242-0.221-16.738,7.078-16.738,16.303
							c0,9.225,7.497,16.873,16.738,17.083l397.51,9.012c8.965,0.203,16.228-6.991,16.228-16.069
							C1540.969,1095.433,1533.705,1087.901,1524.74,1087.687z"/>
					</g>
				</g>
				<g>
					<g>
						
							<linearGradient id="SVGID_00000136405734039437854520000017907987088463675814_" gradientUnits="userSpaceOnUse" x1="1307.1556" y1="1347.824" x2="1393.1438" y2="2125.1521">
							<stop  offset="0" style="stop-color:#FFC444"/>
							<stop  offset="0.9964" style="stop-color:#F36F56"/>
						</linearGradient>
						<path style="fill:url(#SVGID_00000136405734039437854520000017907987088463675814_);" d="M1371.576,1717.014
							c25.807-48.822,74.109-83.506,130.706-89.971l3.952-241.261c-161.313,4.216-300.267,103.677-362.519,246.243
							L1371.576,1717.014z"/>
						
							<linearGradient id="SVGID_00000086655718424290025600000001004645296211588762_" gradientUnits="userSpaceOnUse" x1="1607.7015" y1="1966.922" x2="1951.9388" y2="2662.2139">
							<stop  offset="0.0036" style="stop-color:#E38DDD"/>
							<stop  offset="1" style="stop-color:#9571F6"/>
						</linearGradient>
						<path style="fill:url(#SVGID_00000086655718424290025600000001004645296211588762_);" d="M1687.968,1826.729
							c-13.774,80.157-82.579,141.675-165.863,142.448c-24.621,0.229-48.055-4.878-69.243-14.256l-126.424,207.819
							c58.442,31.035,125.134,47.995,195.667,46.702c209.727-3.844,379.611-167.961,398.758-373.912L1687.968,1826.729z"/>
						
							<linearGradient id="SVGID_00000173122889419848081300000000497122970591210897_" gradientUnits="userSpaceOnUse" x1="1105.3621" y1="1687.4187" x2="1566.3727" y2="2280.1462">
							<stop  offset="0" style="stop-color:#AA80F9"/>
							<stop  offset="0.9964" style="stop-color:#6165D7"/>
						</linearGradient>
						<path style="fill:url(#SVGID_00000173122889419848081300000000497122970591210897_);" d="M1287.392,2139.078l126.786-207.999
							c-38.198-31.35-62.623-79.239-62.623-133.039c0-12.999,1.437-25.662,4.141-37.844l-228.133-84.671
							c-12.015,38.927-18.492,80.307-18.492,123.198C1109.072,1940.752,1179.873,2065.34,1287.392,2139.078z"/>
					</g>
					<g>
						
							<linearGradient id="SVGID_00000106105730218660853470000005964356404814153139_" gradientUnits="userSpaceOnUse" x1="2061.6809" y1="1167.2225" x2="1693.3055" y2="1680.9204">
							<stop  offset="0" style="stop-color:#FF9085"/>
							<stop  offset="1" style="stop-color:#FB6FBB"/>
						</linearGradient>
						<path style="fill:url(#SVGID_00000106105730218660853470000005964356404814153139_);" d="M1547.456,1627.947
							c76.105,11.856,135.252,75.033,142.315,153.336l385.44,15.232c0-0.172,0.003-0.344,0.003-0.516
							c0-298.729-228.083-546.947-521.202-568.995L1547.456,1627.947z"/>
					</g>
				</g>
				<path style="opacity:0.35;fill:#FFFFFF;" d="M1649.136,2592.853c-22.144-270.473,143.984-382.112,80.633-627.163
					c-78.308-302.904-379.486-315.886-482.055-612.92c-37.678-109.113-53.506-271.779,44.459-505.909L881.32,833.428
					c-12.203-0.399-22.138,9.097-22.138,21.168V3217.3c0,12.071,9.935,21.337,22.138,20.657l1125.722-62.715
					C1740.1,2956.855,1662.183,2752.216,1649.136,2592.853z"/>
			</g>
			<g>
				
					<linearGradient id="SVGID_00000021114605537509781570000017269456876813248695_" gradientUnits="userSpaceOnUse" x1="1266.8743" y1="639.3572" x2="669.7849" y2="1471.9958">
					<stop  offset="0" style="stop-color:#FF9085"/>
					<stop  offset="1" style="stop-color:#FB6FBB"/>
				</linearGradient>
				<path style="opacity:0.3;fill:url(#SVGID_00000021114605537509781570000017269456876813248695_);" d="M1248.746,1455.606
					l-835.014-8.311c-18.883-0.188-34.209-15.23-34.209-33.597V1096.1c0-18.367,15.326-32.891,34.209-32.441l726.927,17.315
					c17.879,0.426,32.356,15.234,32.356,33.075v272.967L1248.746,1455.606z"/>
				<polygon style="opacity:0.67;fill:#FFFFFF;" points="1055.724,1195.751 502.744,1184.969 502.744,1146.895 1055.724,1158.439 
									"/>
				<polygon style="opacity:0.67;fill:#FFFFFF;" points="1055.724,1270.373 502.744,1261.118 502.744,1223.044 1055.724,1233.062 
									"/>
				<polygon style="opacity:0.67;fill:#FFFFFF;" points="1055.724,1344.995 502.744,1337.268 502.744,1299.193 1055.724,1307.684 
									"/>
			</g>
			<g>
				
					<linearGradient id="SVGID_00000080900582117482178440000004889937941386362512_" gradientUnits="userSpaceOnUse" x1="-7279.4175" y1="-3279.3179" x2="-7792.9624" y2="-2563.1816" gradientTransform="matrix(-1 0 0 -1 -5902 -287)">
					<stop  offset="0" style="stop-color:#FF9085"/>
					<stop  offset="1" style="stop-color:#FB6FBB"/>
				</linearGradient>
				<path style="opacity:0.3;fill:url(#SVGID_00000080900582117482178440000004889937941386362512_);" d="M1526.259,2293.406
					l563.123-12.104c14.658-0.315,26.53,11.721,26.53,26.884v262.187c0,15.162-11.872,27.854-26.53,28.348l-593.524,20.005
					c-15.354,0.518-27.813-11.661-27.813-27.201V2248.8L1526.259,2293.406z"/>
				<polygon style="opacity:0.67;fill:#FFFFFF;" points="1568.276,2515.365 2019.785,2501.866 2019.785,2533.555 1568.276,2547.604 
									"/>
				<polygon style="opacity:0.67;fill:#FFFFFF;" points="1568.276,2450.89 2019.785,2438.488 2019.785,2470.177 1568.276,2483.128 
									"/>
				<polygon style="opacity:0.67;fill:#FFFFFF;" points="1568.276,2386.414 2019.785,2375.11 2019.785,2406.799 1568.276,2418.651 
									"/>
			</g>
		</g>
		<g>
			
				<linearGradient id="SVGID_00000163792195704417838190000012072042225944481440_" gradientUnits="userSpaceOnUse" x1="3203.3984" y1="3077.8955" x2="3227.2688" y2="3381.7002" gradientTransform="matrix(1 -0.0024 0.0024 1 -794.8005 3.3687)">
				<stop  offset="0" style="stop-color:#311944"/>
				<stop  offset="1" style="stop-color:#A03976"/>
			</linearGradient>
			<path style="fill:url(#SVGID_00000163792195704417838190000012072042225944481440_);" d="M2462.902,3224.979
				c0,0-95.982,43.901-97.534,50.876c-1.553,6.975,61.787-2.485,87.657-1.542c25.869,0.944,47.129-6.753,44.763-17.703
				c-2.37-10.951-11.49-38.486-11.49-38.486L2462.902,3224.979z"/>
			
				<linearGradient id="SVGID_00000153679536780325871680000000500504156381807784_" gradientUnits="userSpaceOnUse" x1="3265.0215" y1="3247.0337" x2="3260.6816" y2="2932.3894" gradientTransform="matrix(1 -0.0024 0.0024 1 -794.8005 3.3687)">
				<stop  offset="0" style="stop-color:#FFC444"/>
				<stop  offset="0.9964" style="stop-color:#F36F56"/>
			</linearGradient>
			<path style="fill:url(#SVGID_00000153679536780325871680000000500504156381807784_);" d="M2459.302,3189.546l5.948,43.247
				c0,0,15.225,5.378,25.428-1.048l4.246-47.459L2459.302,3189.546z"/>
			
				<linearGradient id="SVGID_00000044879101243034520890000010279765607827727002_" gradientUnits="userSpaceOnUse" x1="3654.488" y1="3042.4587" x2="3678.3574" y2="3346.2524" gradientTransform="matrix(1 -0.0024 0.0024 1 -794.8005 3.3687)">
				<stop  offset="0" style="stop-color:#311944"/>
				<stop  offset="1" style="stop-color:#A03976"/>
			</linearGradient>
			<path style="fill:url(#SVGID_00000044879101243034520890000010279765607827727002_);" d="M2911.811,3189.497l11.22,17.914
				c3.138,5.01,4.084,11.049,2.6,16.771c-3.873,14.93-11.609,44.025-14.995,51.615c-4.609,10.339-66.776,16.623-66.776,16.623
				s-5.563-7.789,7.324-17.245c12.886-9.456,21.182-10.957,25.706-24.877c4.521-13.917,7.467-53.264,7.467-53.264L2911.811,3189.497
				z"/>
			
				<linearGradient id="SVGID_00000165199523952155757160000015099913683085800105_" gradientUnits="userSpaceOnUse" x1="3678.4246" y1="3241.3318" x2="3674.0847" y2="2926.6763" gradientTransform="matrix(1 -0.0024 0.0024 1 -794.8005 3.3687)">
				<stop  offset="0" style="stop-color:#FFC444"/>
				<stop  offset="0.9964" style="stop-color:#F36F56"/>
			</linearGradient>
			<path style="fill:url(#SVGID_00000165199523952155757160000015099913683085800105_);" d="M2865.182,3144.012
				c4.091,3.245,24.207,63.814,24.207,63.814s6.485,8.251,18.736-3.978c12.249-12.229,5.545-5.486,5.545-5.486l-2.447-59.614
				L2865.182,3144.012z"/>
			
				<linearGradient id="SVGID_00000165929289691962291030000000195344151525847950_" gradientUnits="userSpaceOnUse" x1="3189.928" y1="2737.3125" x2="3422.5701" y2="2737.3125" gradientTransform="matrix(1 -0.0024 0.0024 1 -794.8005 3.3687)">
				<stop  offset="0" style="stop-color:#AB316D"/>
				<stop  offset="1" style="stop-color:#792D3D"/>
			</linearGradient>
			<path style="fill:url(#SVGID_00000165929289691962291030000000195344151525847950_);" d="M2404.346,2320.515
				c-4.759,129.06-4.629,269.268,3.157,419.032c8.765,168.646,25.94,324.497,47.452,465.761c7.872,0.232,16.142,0.253,24.781-0.009
				c5.834-0.176,11.486-0.474,16.949-0.864c10.916-29.329,23.812-67.895,35.331-113.948c12.109-48.427,19.382-91.857,24.537-133.384
				c18.152-146.211-3.563-158.911,11.194-267.27c13.068-95.968,31.972-99.76,53.848-236.021
				c23.734-147.849,5.748-169.978-2.993-177.966C2581.396,2241.837,2494.247,2265.26,2404.346,2320.515z"/>
			
				<linearGradient id="SVGID_00000016783417495252433640000012526582678382102427_" gradientUnits="userSpaceOnUse" x1="3189.9272" y1="2737.3225" x2="3422.5684" y2="2737.3225" gradientTransform="matrix(1 -0.0024 0.0024 1 -794.8005 3.3687)">
				<stop  offset="0" style="stop-color:#AB316D"/>
				<stop  offset="1" style="stop-color:#792D3D"/>
			</linearGradient>
			<path style="opacity:0.3;fill:url(#SVGID_00000016783417495252433640000012526582678382102427_);" d="M2618.602,2275.847
				c-35.487-32.439-116.418-12.554-201.827,37.289c98.648,106.069,109.54,175.004,97.852,219.778
				c-13.209,50.604-53.704,65.266-53.417,120.564c0.354,67.954,61.728,85.808,60.596,157.722
				c-0.748,47.552-27.699,47.123-33.922,105.868c-7.363,69.508,27.903,93.368,16.622,144.809
				c-4.853,22.13-18.786,51.066-58.596,80.935c2.927,21.106,5.925,41.999,9.048,62.498c7.869,0.23,16.14,0.254,24.78-0.011
				c5.834-0.175,11.488-0.472,16.947-0.863c10.918-29.329,23.813-67.893,35.333-113.948c12.109-48.428,19.382-91.857,24.537-133.384
				c18.151-146.21-3.563-158.911,11.194-267.27c13.068-95.968,31.972-99.762,53.847-236.022
				C2645.328,2305.961,2627.343,2283.833,2618.602,2275.847z"/>
			
				<linearGradient id="SVGID_00000028308271537683501370000015787179033211646650_" gradientUnits="userSpaceOnUse" x1="3254.5142" y1="2714.3796" x2="3722.8489" y2="2714.3796" gradientTransform="matrix(1 -0.0024 0.0024 1 -794.8005 3.3687)">
				<stop  offset="0" style="stop-color:#AB316D"/>
				<stop  offset="1" style="stop-color:#792D3D"/>
			</linearGradient>
			<path style="fill:url(#SVGID_00000028308271537683501370000015787179033211646650_);" d="M2465.288,2318.201
				c85.017,123.76,176.768,277.818,258.932,462.285c62.092,139.403,107.197,270.321,140.363,387.015
				c4.455,2.049,14.961,6.134,28.371,4.329c18.29-2.464,29.227-14.168,32.085-17.435c13.183-83.743,11.538-154.635,6.872-205.791
				c-2.988-32.752-8.266-87.296-29.309-154.595c-23.57-75.384-39.66-79.585-70.366-159.327
				c-31.869-82.768-24.248-103.459-54.826-207.06c-12.563-42.56-33.572-105.888-68.17-181.617
				C2627.921,2270.069,2546.604,2294.135,2465.288,2318.201z"/>
			
				<linearGradient id="SVGID_00000148633912946430308320000005145196781720455853_" gradientUnits="userSpaceOnUse" x1="2855.9036" y1="1650.8326" x2="2328.2219" y2="2517.1765">
				<stop  offset="0" style="stop-color:#AA80F9"/>
				<stop  offset="0.9964" style="stop-color:#6165D7"/>
			</linearGradient>
			<path style="fill:url(#SVGID_00000148633912946430308320000005145196781720455853_);" d="M2119.927,2143.58
				c0.805,30.114,50.3,56.639,90.152,64.774c93.18,19.018,201.21-48.687,252.485-123.583c10.069-14.706,21.255-32.537,23.952-31.157
				c6.096,3.122-49.921,95.16-74.208,199.839c-12.426,53.552-9.173,78.632-32.403,114.284c-5.262,8.076-11.747,16.485-9.468,26.041
				c5.707,23.928,60.431,30.142,98.391,34.452c40.078,4.55,77.45,4.11,114.397,3.57c59.145-0.863,63.803-3.936,77.304,2.691
				c41.138,20.189,38.351,68.564,69.308,75.015c25.998,5.419,52.37-23.613,60.731-32.818
				c43.463-47.845,41.141-105.529,48.85-163.712c17.921-135.269,91.412-283.47,163.301-377.286
				c21.803-28.453,36.965-43.42,37.911-69.863c2.78-77.624-120.195-163.313-222.583-173.159
				c-28.064-2.697-78.317-1.849-125.428,2.594c-18.829,1.773-38.875,4.385-60.421,8.155c-52.253,9.142-88.63,15.503-125.701,32.464
				c-149.489,68.398-116.865,220.651-278.664,325.92C2172.199,2097.997,2119.084,2112.045,2119.927,2143.58z"/>
			
				<linearGradient id="SVGID_00000158016353278970035050000010288054165529833089_" gradientUnits="userSpaceOnUse" x1="2748.8264" y1="1639.7969" x2="2699.1265" y2="2078.2175">
				<stop  offset="0" style="stop-color:#FFC444"/>
				<stop  offset="0.9964" style="stop-color:#F36F56"/>
			</linearGradient>
			<path style="fill:url(#SVGID_00000158016353278970035050000010288054165529833089_);" d="M2732.429,1612.143
				c0,0,6.42,35.83,21.199,61.337c13.357,23.051,68.581,31.314,80.086,35.327c11.505,4.011-17.357,24.048-48.052,31.313
				c-30.692,7.267-120.475,12.016-138.058,2.352c-17.585-9.662,11.419-12.617,32.54-23.721
				c21.122-11.104,28.185-56.24,21.645-75.428C2695.248,1624.132,2732.429,1612.143,2732.429,1612.143z"/>
			<g>
				
					<linearGradient id="SVGID_00000166668564802673721580000016111604561827536798_" gradientUnits="userSpaceOnUse" x1="4608.9585" y1="2433.0862" x2="4529.1367" y2="2230.353" gradientTransform="matrix(0.9989 0.0475 -0.0475 0.9989 -1725.9976 -907.3022)">
					<stop  offset="0" style="stop-color:#444B8C"/>
					<stop  offset="0.9964" style="stop-color:#3E4177"/>
				</linearGradient>
				<path style="fill:url(#SVGID_00000166668564802673721580000016111604561827536798_);" d="M2674.075,1601.774
					c-22.274-15.918-28.442-58.966-16.071-68.629c3.536-2.762,6.914-1.493,57.181,18.67c24.962,10.015,37.24,15.346,41.283,26.37
					c2.47,6.729,2.07,15.82-0.657,22.984c-1.405,3.686-4.141,8.275-10.225,17.033c-5.4,7.772-5.036,7.509-6.692,9.767
					c-3.977,5.426-11.648,14.562-25.703,25.151c-0.782-3.962-2.017-8.879-4.087-14.24c-0.796-2.063-4.007-10.127-9.098-16.92
					C2691.244,1610.268,2681.304,1606.941,2674.075,1601.774z"/>
				
					<linearGradient id="SVGID_00000071549051203654291810000018320313113607377028_" gradientUnits="userSpaceOnUse" x1="2704.0957" y1="1589.3363" x2="2743.145" y2="1912.3821">
					<stop  offset="0" style="stop-color:#FFC444"/>
					<stop  offset="0.9964" style="stop-color:#F36F56"/>
				</linearGradient>
				<path style="fill:url(#SVGID_00000071549051203654291810000018320313113607377028_);" d="M2731.159,1642.713
					c0,0-14.573,21.71-41.566,18.764c-24.169-2.639-25.341-57.147-9.354-68.005c5.333-3.623,15.747-4.766,24.055-2.042
					c4.908,1.609,6.497,3.749,14.566,6.221c7.442,2.282,9.606,1.54,11.795,3.553c2.738,2.516,4.562,8.471-0.88,24.155
					c4.83-4.481,10.46-6.034,14.31-4.006c0.614,0.323,2.23,1.529,3.09,3.285C2750.292,1630.997,2744.277,1638.677,2731.159,1642.713
					z"/>
			</g>
			
				<linearGradient id="SVGID_00000124855417196231570420000007097457903388902583_" gradientUnits="userSpaceOnUse" x1="2134.5686" y1="2098.3499" x2="2511.3413" y2="2098.3499">
				<stop  offset="0" style="stop-color:#AA80F9"/>
				<stop  offset="0.9964" style="stop-color:#6165D7"/>
			</linearGradient>
			<path style="opacity:0.3;fill:url(#SVGID_00000124855417196231570420000007097457903388902583_);" d="M2250.634,2138.951
				c67.56-15.216,94.479-14.725,127.889-41.643c55.624-44.818,63.978-113.031,96.302-112.197
				c15.276,0.394,27.685,15.994,36.516,31.27c-8.138,12.744-16.275,25.489-24.413,38.233c-0.033-0.485-0.141-0.86-0.412-0.999
				c-2.697-1.38-13.884,16.451-23.952,31.157c-51.275,74.895-159.305,142.6-252.485,123.583
				c-26.718-5.454-57.702-19.194-75.511-36.718C2180.557,2156.102,2219.836,2145.889,2250.634,2138.951z"/>
			
				<linearGradient id="SVGID_00000122688497131126742890000017218484655958880938_" gradientUnits="userSpaceOnUse" x1="6130.6216" y1="888.4728" x2="6215.3613" y2="888.4728" gradientTransform="matrix(0.8553 0.5182 -0.5182 0.8553 -2728.719 -1761.0112)">
				<stop  offset="0" style="stop-color:#FFC444"/>
				<stop  offset="0.9964" style="stop-color:#F36F56"/>
			</linearGradient>
			<path style="fill:url(#SVGID_00000122688497131126742890000017218484655958880938_);" d="M2140.601,2197.041
				c0,0-38.122-3.791-60.838-13.51c-22.716-9.72-37.39,4.236-35.303,13.899c2.086,9.659,39.459,23.11,54.39,23.592
				C2113.781,2221.505,2140.601,2197.041,2140.601,2197.041z"/>
			
				<linearGradient id="SVGID_00000005945674820939297440000000776613910169647544_" gradientUnits="userSpaceOnUse" x1="3141.4055" y1="1824.7299" x2="2613.7227" y2="2691.0754">
				<stop  offset="0" style="stop-color:#AA80F9"/>
				<stop  offset="0.9964" style="stop-color:#6165D7"/>
			</linearGradient>
			<path style="fill:url(#SVGID_00000005945674820939297440000000776613910169647544_);" d="M2961.635,2398.684
				c40.93,3.652,133.062,5.318,198.223-54.967c108.482-100.356,54.666-291.384,16.904-373.539
				c-43.293-94.194-112.199-146.918-154.074-178.96c-51.952-39.753-83.663-64.015-121.812-58.583
				c-98.665,14.051-166.996,216.267-112.833,274.163c17.732,18.953,35.291,8.221,86.607,24.563
				c16.711,5.323,141.439,45.049,163.155,136.913c15.199,64.295-23.498,139.582-92.372,190.146
				C2950.834,2371.842,2956.234,2385.263,2961.635,2398.684z"/>
			
				<linearGradient id="SVGID_00000168081962429883139930000015747627304833502633_" gradientUnits="userSpaceOnUse" x1="2374.1313" y1="2217.8547" x2="3147.1301" y2="2217.8547">
				<stop  offset="0" style="stop-color:#AA80F9"/>
				<stop  offset="0.9964" style="stop-color:#6165D7"/>
			</linearGradient>
			<path style="opacity:0.3;fill:url(#SVGID_00000168081962429883139930000015747627304833502633_);" d="M2502.865,2365.375
				c46.337-29.283,53.193-58.962,105.08-79.015c67.408-26.053,99.8,7.041,133.219-19.678c39.772-31.798,4.564-87.196,34.327-183.329
				c5.052-16.318,43.421-140.252,131.459-156.042c41.053-7.363,95.276,8.364,116.17,43.154c16.352,27.226,1.118,47.523,21,77.58
				c19.868,30.038,43.629,22.691,68.955,47.743c40.215,39.781,46.379,123.666,10.072,171.105
				c-16.935,22.127-38.94,30.877-80.348,47.342c-25.292,10.055-48.804,16.311-69.052,20.283
				c50.702-48.664,77.015-111.423,64.055-166.243c-13.536-57.264-67.096-94.263-109.574-115.303
				c-42.505,79.992-77.244,172.683-88.812,260.006c-7.708,58.183-5.386,115.867-48.85,163.712
				c-8.361,9.204-34.734,38.237-60.731,32.818c-30.957-6.451-28.17-54.826-69.308-75.015c-13.501-6.627-18.159-3.554-77.304-2.691
				c-36.947,0.54-74.319,0.98-114.397-3.57c-33.759-3.834-80.689-9.205-94.697-27.171
				C2435.076,2399.402,2475.75,2382.51,2502.865,2365.375z"/>
			<g>
				
					<linearGradient id="SVGID_00000157272831017129372190000017762002462315638699_" gradientUnits="userSpaceOnUse" x1="1982.1903" y1="2274.6248" x2="2941.7571" y2="2274.6248">
					<stop  offset="0" style="stop-color:#444B8C"/>
					<stop  offset="0.9964" style="stop-color:#26264F"/>
				</linearGradient>
				<path style="fill:url(#SVGID_00000157272831017129372190000017762002462315638699_);" d="M2934.763,2430.852l4.768-14.026
					c7.602-22.364-4.897-46.214-27.901-53.221l-901.956-274.754l-27.484,93.154l897.399,276.409
					C2902.475,2465.462,2927.184,2453.144,2934.763,2430.852z"/>
				
					<linearGradient id="SVGID_00000075145715515905183100000016568473749251596196_" gradientUnits="userSpaceOnUse" x1="1097.2074" y1="1971.7328" x2="2087.3025" y2="1971.7328">
					<stop  offset="0" style="stop-color:#444B8C"/>
					<stop  offset="0.9964" style="stop-color:#26264F"/>
				</linearGradient>
				<path style="fill:url(#SVGID_00000075145715515905183100000016568473749251596196_);" d="M1113.388,1836.475
					c68.961-272.443,339.197-436.631,606.449-359.682c272.157,78.361,427.972,373.243,345.282,651.214
					c-80.747,271.444-357.66,417.879-616.057,334.131C1195.13,2379.836,1045.995,2102.722,1113.388,1836.475z M1986.614,2103.96
					c68.341-232.629-62.053-479.019-289.32-545.134c-223.835-65.117-451.242,71.562-509.923,300.312
					c-57.556,224.361,68.128,458.223,282.544,527.115C1687.504,2456.164,1919.621,2332.005,1986.614,2103.96z"/>
				<path style="opacity:0.3;fill:#D8DEE8;" d="M2009.674,2088.852l115.003,35.032c7.891,36.678,23.233,57.693,38.674,70.492
					c58.089,48.155,135.656-4.364,243.873,52.1c54.303,28.334,43.985,46.365,94.886,66.135c84.15,32.685,122.67-12.59,197.144,17.16
					c75.328,30.091,82.754,95.12,125.476,92.786c18.275-0.998,41.802-14.293,68.036-64.699l18.865,5.747
					c23.004,7.007,35.503,30.856,27.901,53.222l-4.768,14.025c-7.579,22.292-32.288,34.61-55.173,27.561l-897.399-276.408
					L2009.674,2088.852z"/>
				<path style="opacity:0.56;fill:#FFFFFF;" d="M1448.62,2423.536c225.07,72.431,465.368-55.835,534.854-291.822
					c70.932-240.9-64.098-496.123-299.539-564.486c-231.759-67.296-467.014,74.38-527.597,311.12
					C1096.957,2110.393,1226.943,2352.198,1448.62,2423.536z"/>
				
					<linearGradient id="SVGID_00000100364905749579655400000006705650037258491791_" gradientUnits="userSpaceOnUse" x1="-6691.4336" y1="3531.3584" x2="-7189.9634" y2="2973.176" gradientTransform="matrix(-0.8705 0.4922 0.4922 0.8705 -6104.4209 2747.6741)">
					<stop  offset="0" style="stop-color:#444B8C"/>
					<stop  offset="0.9964" style="stop-color:#26264F"/>
				</linearGradient>
				<path style="fill:url(#SVGID_00000100364905749579655400000006705650037258491791_);" d="M1095.917,1859.84
					c68.961-272.443,339.197-436.63,606.449-359.682c272.158,78.362,427.971,373.243,345.282,651.213
					c-80.749,271.445-357.661,417.88-616.057,334.131C1177.661,2403.201,1028.525,2126.086,1095.917,1859.84z M1969.145,2127.325
					c68.341-232.629-62.053-479.019-289.321-545.134c-223.835-65.117-451.242,71.561-509.924,300.312
					c-57.555,224.361,68.128,458.222,282.545,527.114C1670.035,2479.528,1902.151,2355.37,1969.145,2127.325z"/>
				
					<linearGradient id="SVGID_00000028283718604977645210000006760243738490094744_" gradientUnits="userSpaceOnUse" x1="-7424.2759" y1="2716.3801" x2="-6748.147" y2="3460.6904" gradientTransform="matrix(-0.8705 0.4922 0.4922 0.8705 -6104.4209 2747.6741)">
					<stop  offset="0" style="stop-color:#444B8C"/>
					<stop  offset="0.9964" style="stop-color:#26264F"/>
				</linearGradient>
				<path style="fill:url(#SVGID_00000028283718604977645210000006760243738490094744_);" d="M1122.039,1867.842
					c65.358-256.988,320.467-411.394,572.337-338.607c256.223,74.045,403.026,351.72,325.462,613.619
					c-75.847,256.099-336.898,394.706-580.887,315.869C1198.946,2381.173,1058.085,2119.308,1122.039,1867.842z M1969.145,2127.325
					c68.341-232.629-62.053-479.019-289.321-545.134c-223.835-65.117-451.242,71.561-509.924,300.312
					c-57.555,224.361,68.128,458.222,282.545,527.114C1670.035,2479.528,1902.151,2355.37,1969.145,2127.325z"/>
			</g>
			
				<linearGradient id="SVGID_00000070093773791786639560000006092613726286678971_" gradientUnits="userSpaceOnUse" x1="-5528.687" y1="694.692" x2="-5509.9302" y2="588.5206" gradientTransform="matrix(-0.8553 -0.5182 -0.5182 0.8553 -1479.6936 -1003.974)">
				<stop  offset="0" style="stop-color:#FFC444"/>
				<stop  offset="0.9964" style="stop-color:#F36F56"/>
			</linearGradient>
			<path style="fill:url(#SVGID_00000070093773791786639560000006092613726286678971_);" d="M2958.159,2390.049l-9.115-22.654
				c0,0-14.881,0.906-27.092-7.85c-6.654-4.771-18.462-6.193-21.894-5.24c-3.431,0.951-16.392,0.385-1.618,7.434
				c14.771,7.047,14.656,12.283,8.498,18.068c-6.157,5.784-29.588,18.228-38.021,18.826c-8.434,0.6,6.815,13.645,15.32,15.311
				c8.506,1.663,22.453,3.771,39.708-6.389C2930.239,2403.85,2958.159,2390.049,2958.159,2390.049z"/>
		</g>
		<g>
			
				<linearGradient id="SVGID_00000067233505432841764500000008487142971096527011_" gradientUnits="userSpaceOnUse" x1="1587.7839" y1="1667.825" x2="4212.2808" y2="-1702.8463">
				<stop  offset="0" style="stop-color:#AB316D"/>
				<stop  offset="1" style="stop-color:#792D3D"/>
			</linearGradient>
			<path style="fill:url(#SVGID_00000067233505432841764500000008487142971096527011_);" d="M2530.07,525.862l-607.848-37.266
				c-44.63-2.302-80.978,32.595-80.978,77.952v567.843c0,45.358,36.348,82.471,80.978,82.892l33.82,0.318v139.836
				c0,20.958,24.842,31.187,45.352,8.008l127.156-146.218l401.521,1.219c37.552,0.354,67.867-32.871,67.867-74.209V604.209
				C2597.937,562.872,2567.622,527.798,2530.07,525.862z"/>
			
				<linearGradient id="SVGID_00000172429506284444477450000009503848176998279351_" gradientUnits="userSpaceOnUse" x1="1836.6744" y1="1358.1085" x2="2312.0654" y2="747.5585">
				<stop  offset="0" style="stop-color:#FCB148"/>
				<stop  offset="0.0521" style="stop-color:#FDBA46"/>
				<stop  offset="0.1424" style="stop-color:#FFC244"/>
				<stop  offset="0.3183" style="stop-color:#FFC444"/>
				<stop  offset="0.4849" style="stop-color:#FDB946"/>
				<stop  offset="0.7754" style="stop-color:#F99C4D"/>
				<stop  offset="0.8658" style="stop-color:#F8924F"/>
				<stop  offset="1" style="stop-color:#F8924F"/>
			</linearGradient>
			<path style="fill:url(#SVGID_00000172429506284444477450000009503848176998279351_);" d="M2549.339,1205.637l-607.849-3.164
				c-44.63-0.421-80.979-37.533-80.979-82.891V551.739c0-45.358,36.349-80.254,80.979-77.952l607.849,37.266
				c37.552,1.937,67.865,37.01,67.865,78.348v542.028C2617.203,1172.766,2586.891,1205.991,2549.339,1205.637z"/>
			
				<linearGradient id="SVGID_00000139980989575922866250000018377211003738411167_" gradientUnits="userSpaceOnUse" x1="2355.0908" y1="1145.5472" x2="2047.3562" y2="362.8315">
				<stop  offset="0" style="stop-color:#FCB148"/>
				<stop  offset="0.0521" style="stop-color:#FDBA46"/>
				<stop  offset="0.1424" style="stop-color:#FFC244"/>
				<stop  offset="0.3183" style="stop-color:#FFC444"/>
				<stop  offset="0.4849" style="stop-color:#FDB946"/>
				<stop  offset="0.7754" style="stop-color:#F99C4D"/>
				<stop  offset="0.8658" style="stop-color:#F8924F"/>
				<stop  offset="1" style="stop-color:#F8924F"/>
			</linearGradient>
			<path style="fill:url(#SVGID_00000139980989575922866250000018377211003738411167_);" d="M1883.648,1134.863V537.869
				c0-24.139,19.338-42.736,43.133-41.541l634.976,36.756c20.002,1.005,36.18,19.696,36.18,41.752v569.984
				c0,22.057-16.179,39.762-36.182,39.547l-634.972-5.328C1902.987,1178.781,1883.648,1159.003,1883.648,1134.863z"/>
			<g>
				<g>
					<g>
						<path style="fill:#FFFFFF;" d="M2291.869,920.391c0-10.848-2.587-19.432-7.764-25.756
							c-5.18-6.328-14.285-12.427-27.329-18.303c-13.064-5.885-25.146-11.818-36.241-17.798
							c-11.11-5.989-20.693-12.835-28.742-20.539c-8.057-7.712-14.24-16.546-18.543-26.501c-4.306-9.96-6.459-21.927-6.459-35.898
							c0-23.378,7.67-42.356,22.989-56.914c15.291-14.533,35.637-22.531,61.001-24.01v-43.565l31.731,1.335v44.308
							c24.267,4.662,43.281,15.72,57.076,33.163c13.773,17.415,20.651,39.104,20.651,65.089l-66.977-2.264
							c0-14.28-2.653-25.358-7.962-33.237c-5.312-7.885-12.887-12.008-22.731-12.367c-8.79-0.32-15.622,2.288-20.49,7.826
							c-4.872,5.542-7.309,13.343-7.309,23.401c0,10.196,2.804,18.384,8.409,24.562c5.602,6.174,14.596,12.179,26.974,18.011
							c12.359,5.823,24.004,11.823,34.938,17.998c10.92,6.167,20.339,13.069,28.263,20.707c7.916,7.63,14.113,16.435,18.592,26.417
							c4.477,9.976,6.715,21.869,6.715,35.683c0,23.388-7.143,42.298-21.447,56.748c-14.328,14.475-33.878,22.689-58.686,24.629
							v41.433l-31.746-0.601v-41.717c-29.122-3.795-51.532-14.601-67.177-32.433c-15.674-17.865-23.522-41.136-23.522-69.788
							l67.864,1.85c0,15.717,3.376,27.763,10.123,36.134c6.742,8.364,16.312,12.696,28.7,12.998
							c9.046,0.221,16.157-2.388,21.337-7.824C2289.281,937.73,2291.869,930.14,2291.869,920.391z"/>
					</g>
					<path style="fill:#FFFFFF;" d="M2477.734,621.568c3.529,0.157,6.398,3.288,6.398,6.981v452.26c0,3.692-2.869,6.649-6.398,6.59
						l-443.72-7.363c-3.719-0.062-6.746-3.198-6.746-6.991V608.448c0-3.793,3.027-6.745,6.746-6.579L2477.734,621.568z
						 M2477.734,595.924l-443.72-20.378c-18.006-0.827-32.621,13.388-32.621,31.764v465.295c0,18.376,14.615,33.483,32.621,33.754
						l443.72,6.684c17.054,0.257,30.844-13.984,30.844-31.818V629.623C2508.579,611.789,2494.789,596.707,2477.734,595.924z"/>
				</g>
			</g>
			
				<linearGradient id="SVGID_00000019638098170742391990000011543868740899144893_" gradientUnits="userSpaceOnUse" x1="1877.8395" y1="1426.837" x2="2544.1262" y2="571.1171">
				<stop  offset="0" style="stop-color:#FCB148"/>
				<stop  offset="0.0521" style="stop-color:#FDBA46"/>
				<stop  offset="0.1424" style="stop-color:#FFC244"/>
				<stop  offset="0.3183" style="stop-color:#FFC444"/>
				<stop  offset="0.4849" style="stop-color:#FDB946"/>
				<stop  offset="0.7754" style="stop-color:#F99C4D"/>
				<stop  offset="0.8658" style="stop-color:#F8924F"/>
				<stop  offset="1" style="stop-color:#F8924F"/>
			</linearGradient>
			<path style="fill:url(#SVGID_00000019638098170742391990000011543868740899144893_);" d="M1975.308,1342.629v-168.6
				l197.048,2.186l-157.955,181.531C2000.777,1373.403,1975.308,1363.586,1975.308,1342.629z"/>
		</g>
	</g>
</g>
</svg>
