<svg width="16" height="16" viewBox="0 0 16 16" fill="none" xmlns="http://www.w3.org/2000/svg">
<path fill-rule="evenodd" clip-rule="evenodd" d="M7.99843 3.33335C7.57882 3.33236 7.16051 3.38017 6.75194 3.4758C6.39344 3.55972 6.03479 3.33713 5.95088 2.97863C5.86696 2.62013 6.08956 2.26148 6.44806 2.17756C6.95701 2.05843 7.47808 1.99885 8.00078 2.00002C10.6001 2.00031 12.5971 3.48445 13.903 4.87739C14.5621 5.58041 15.0653 6.28089 15.4038 6.805C15.5734 7.06769 15.7028 7.28778 15.7907 7.44401C15.8347 7.52217 15.8683 7.58448 15.8915 7.62831C15.9031 7.65023 15.9121 7.66753 15.9184 7.6799L15.926 7.69471L15.9283 7.69926L15.9294 7.7014C15.9295 7.70165 15.9296 7.70187 15.3333 8.00002L15.9296 7.70187C16.0263 7.89529 16.0232 8.12359 15.9213 8.31429C15.4947 9.11229 14.986 9.86356 14.4034 10.5559C14.1664 10.8376 13.7458 10.8738 13.4641 10.6368C13.1824 10.3997 13.1462 9.97918 13.3832 9.69745C13.8293 9.16737 14.2271 8.59879 14.572 7.99853C14.4992 7.87284 14.4029 7.71292 14.2837 7.52837C13.9764 7.05247 13.5212 6.41962 12.9303 5.78931C11.7363 4.51572 10.067 3.33335 8 3.33335L7.99843 3.33335ZM3.6354 3.51017C3.90082 3.30748 4.27526 3.33247 4.5114 3.56861L7.05545 6.11266C7.057 6.1142 7.05855 6.11574 7.06009 6.1173L9.88269 8.93989C9.88426 8.94146 9.88583 8.94302 9.88739 8.9446L12.4314 11.4886C12.5674 11.6246 12.6381 11.8128 12.6252 12.0047C12.6123 12.1966 12.5171 12.3736 12.3641 12.4902C11.1114 13.4451 9.58591 13.9742 8.0109 13.9999L8 14C5.40033 14 3.40299 12.5157 2.09698 11.1226C1.43789 10.4196 0.93471 9.71914 0.596224 9.19503C0.426567 8.93234 0.297195 8.71226 0.209314 8.55602C0.165349 8.47786 0.131693 8.41555 0.108502 8.37172C0.0969045 8.34981 0.0879168 8.3325 0.0815587 8.32013L0.0739934 8.30532L0.0716927 8.30077L0.0706167 8.29863C0.0704942 8.29838 0.070382 8.29816 0.666667 8.00002L0.0703819 8.29816C-0.0264925 8.10441 -0.023193 7.87567 0.0792296 7.6848C0.953436 6.05563 2.16594 4.63226 3.6354 3.51017ZM1.42838 8.00212C1.5011 8.12772 1.59728 8.28742 1.71628 8.47167C2.02362 8.94756 2.47878 9.58041 3.06969 10.2107C4.26263 11.4832 5.93008 12.6646 7.99456 12.6667C9.02487 12.6489 10.0291 12.3683 10.9143 11.8571L9.3665 10.3093C9.26066 10.3757 9.15005 10.4346 9.03543 10.4857C8.70832 10.6315 8.35521 10.7098 7.99715 10.7162C7.6391 10.7225 7.28344 10.6566 6.95139 10.5225C6.61935 10.3884 6.31772 10.1887 6.06449 9.93552C5.81127 9.6823 5.61165 9.38067 5.47753 9.04862C5.34341 8.71658 5.27754 8.36092 5.28386 8.00286C5.29018 7.64481 5.36855 7.29169 5.5143 6.96459C5.56537 6.84996 5.62435 6.73936 5.69069 6.63352L3.9914 4.93422C2.96688 5.80093 2.09956 6.83879 1.42838 8.00212ZM6.68526 7.62809C6.64248 7.75637 6.61938 7.89067 6.61699 8.02638C6.61383 8.20541 6.64676 8.38324 6.71382 8.54926C6.78088 8.71529 6.88069 8.8661 7.0073 8.99271C7.13391 9.11933 7.28473 9.21914 7.45075 9.2862C7.61678 9.35326 7.79461 9.38619 7.97363 9.38303C8.10935 9.38064 8.24364 9.35754 8.37193 9.31476L6.68526 7.62809Z" fill="#9DA7A2"/>
<path fill-rule="evenodd" clip-rule="evenodd" d="M0.195262 0.195262C0.455612 -0.0650874 0.877722 -0.0650874 1.13807 0.195262L15.8047 14.8619C16.0651 15.1223 16.0651 15.5444 15.8047 15.8047C15.5444 16.0651 15.1223 16.0651 14.8619 15.8047L0.195262 1.13807C-0.0650874 0.877722 -0.0650874 0.455612 0.195262 0.195262Z" fill="#9DA7A2"/>
</svg>
